<svg xmlns="http://www.w3.org/2000/svg" width="4849" height="1156" viewBox="33 -58 4849 1156"><defs><marker id="arrow-control" viewBox="0 0 10 10" refX="9" refY="5" markerWidth="8" markerHeight="8" orient="auto-start-reverse"><path d="M0,0 L10,5 L0,10 z" fill="#37474F"/></marker><marker id="arrow-data" viewBox="0 0 10 10" refX="9" refY="5" markerWidth="8" markerHeight="8" orient="auto-start-reverse"><path d="M0,0 L10,5 L0,10 z" fill="#546E7A"/></marker><marker id="arrow-design" viewBox="0 0 10 10" refX="9" refY="5" markerWidth="8" markerHeight="8" orient="auto-start-reverse"><path d="M0,0 L10,5 L0,10 z" fill="#F9A825"/></marker><marker id="arrow-future" viewBox="0 0 10 10" refX="9" refY="5" markerWidth="8" markerHeight="8" orient="auto-start-reverse"><path d="M0,0 L10,5 L0,10 z" fill="#9E9E9E"/></marker></defs><rect x="33" y="-58" width="4849" height="1156" fill="#FFFFFF"/><rect x="3768.0" y="44.0" width="1074.0" height="877.0" rx="6" fill="#F5F7FA" stroke="#37474F" stroke-width="2"/><rect x="2986.0" y="44.0" width="690.0" height="877.0" rx="6" fill="#F5F7FA" stroke="#37474F" stroke-width="2"/><rect x="2588.0" y="44.0" width="292.0" height="636.0" rx="6" fill="#F5F7FA" stroke="#37474F" stroke-width="2"/><rect x="761.0" y="44.0" width="1735.0" height="877.0" rx="6" fill="#F5F7FA" stroke="#37474F" stroke-width="2"/><rect x="363.0" y="44.0" width="292.0" height="636.0" rx="6" fill="#F5F7FA" stroke="#37474F" stroke-width="2"/><rect x="4564.0" y="790.0" width="264.0" height="117.0" rx="6" fill="#FFF3E0" stroke="#E65100" stroke-width="2"/><rect x="4564.0" y="308.0" width="264.0" height="358.0" rx="6" fill="#EDE7F6" stroke="#4527A0" stroke-width="2"/><rect x="4166.0" y="549.0" width="264.0" height="117.0" rx="6" fill="#FFF3E0" stroke="#E65100" stroke-width="2"/><rect x="3782.0" y="308.0" width="648.0" height="117.0" rx="6" fill="#FCE4EC" stroke="#AD1457" stroke-width="2"/><rect x="3398.0" y="549.0" width="264.0" height="117.0" rx="6" fill="#FFF3E0" stroke="#E65100" stroke-width="2"/><rect x="3000.0" y="790.0" width="264.0" height="117.0" rx="6" fill="#FFF3E0" stroke="#E65100" stroke-width="2"/><rect x="3000.0" y="308.0" width="264.0" height="358.0" rx="6" fill="#E0F2F1" stroke="#00695C" stroke-width="2"/><rect x="2602.0" y="308.0" width="264.0" height="358.0" rx="6" fill="#E0F2F1" stroke="#00695C" stroke-width="2"/><rect x="2218.0" y="790.0" width="264.0" height="117.0" rx="6" fill="#FFF3E0" stroke="#E65100" stroke-width="2"/><rect x="1834.0" y="308.0" width="648.0" height="358.0" rx="6" fill="#EDE7F6" stroke="#4527A0" stroke-width="2"/><rect x="775.0" y="790.0" width="264.0" height="117.0" rx="6" fill="#FFF3E0" stroke="#E65100" stroke-width="2"/><rect x="775.0" y="308.0" width="264.0" height="358.0" rx="6" fill="#EDE7F6" stroke="#4527A0" stroke-width="2"/><rect x="377.0" y="308.0" width="264.0" height="358.0" rx="6" fill="#FCE4EC" stroke="#AD1457" stroke-width="2"/><path d="M243.0,118.0 L377.0,118.0" fill="none" stroke="#37474F" stroke-width="2.0" marker-end="url(#arrow-control)" marker-start="url(#arrow-control)"/><rect x="279.4" y="106.5" width="61" height="17" rx="3" fill="#FFFFFF"/><text x="310.0" y="118.5" font-family="Trebuchet MS, Verdana, Arial, sans-serif" font-size="11" fill="#37474F" text-anchor="middle">fills in</text><path d="M509.0,160.0 L509.0,340.0" fill="none" stroke="#37474F" stroke-width="2.0" marker-end="url(#arrow-control)"/><rect x="484.8" y="238.5" width="48" height="17" rx="3" fill="#FFFFFF"/><text x="509.0" y="250.5" font-family="Trebuchet MS, Verdana, Arial, sans-serif" font-size="11" fill="#37474F" text-anchor="middle">step 1</text><path d="M509.0,411.0 L509.0,581.0" fill="none" stroke="#546E7A" stroke-width="2.0" stroke-dasharray="2 4" marker-end="url(#arrow-data)"/><rect x="468.8" y="484.5" width="80" height="17" rx="3" fill="#FFFFFF"/><text x="509.0" y="496.5" font-family="Trebuchet MS, Verdana, Arial, sans-serif" font-size="11" fill="#546E7A" text-anchor="middle">saveMembers</text><path d="M641.0,118.0 L775.0,118.0" fill="none" stroke="#37474F" stroke-width="2.0" marker-end="url(#arrow-control)"/><rect x="683.8" y="106.5" width="48" height="17" rx="3" fill="#FFFFFF"/><text x="708.0" y="118.5" font-family="Trebuchet MS, Verdana, Arial, sans-serif" font-size="11" fill="#37474F" text-anchor="middle">submit</text><path d="M907.0,160.0 L907.0,340.0" fill="none" stroke="#37474F" stroke-width="2.0" marker-end="url(#arrow-control)"/><rect x="882.8" y="238.5" width="48" height="17" rx="3" fill="#FFFFFF"/><text x="907.0" y="250.5" font-family="Trebuchet MS, Verdana, Arial, sans-serif" font-size="11" fill="#37474F" text-anchor="middle">step 2</text><path d="M907.0,411.0 L907.0,581.0" fill="none" stroke="#37474F" stroke-width="2.0" marker-end="url(#arrow-control)"/><rect x="889.2" y="484.5" width="36" height="17" rx="3" fill="#FFFFFF"/><text x="907.0" y="496.5" font-family="Trebuchet MS, Verdana, Arial, sans-serif" font-size="11" fill="#37474F" text-anchor="middle">runs</text><path d="M907.0,652.0 L907.0,822.0" fill="none" stroke="#546E7A" stroke-width="2.0" stroke-dasharray="2 4" marker-end="url(#arrow-data)" marker-start="url(#arrow-data)"/><rect x="863.6" y="725.5" width="87" height="17" rx="3" fill="#FFFFFF"/><text x="907.0" y="737.5" font-family="Trebuchet MS, Verdana, Arial, sans-serif" font-size="11" fill="#546E7A" text-anchor="middle">text, fields</text><path d="M1039.0,118.0 L1173.0,118.0" fill="none" stroke="#37474F" stroke-width="2.0" marker-end="url(#arrow-control)"/><rect x="1088.2" y="106.5" width="36" height="17" rx="3" fill="#FFFFFF"/><text x="1106.0" y="118.5" font-family="Trebuchet MS, Verdana, Arial, sans-serif" font-size="11" fill="#37474F" text-anchor="middle">then</text><path d="M1437.0,118.0 L1571.0,118.0" fill="none" stroke="#37474F" stroke-width="2.0" marker-end="url(#arrow-control)"/><rect x="1483.0" y="106.5" width="42" height="17" rx="3" fill="#FFFFFF"/><text x="1504.0" y="118.5" font-family="Trebuchet MS, Verdana, Arial, sans-serif" font-size="11" fill="#37474F" text-anchor="middle">check</text><path d="M1700.0,118.0 L1834.0,118.0" fill="none" stroke="#37474F" stroke-width="2.0" marker-end="url(#arrow-control)"/><rect x="1752.4" y="106.5" width="29" height="17" rx="3" fill="#FFFFFF"/><text x="1767.0" y="118.5" font-family="Trebuchet MS, Verdana, Arial, sans-serif" font-size="11" fill="#37474F" text-anchor="middle">yes</text><path d="M1635.5,85.5 L1635.5,-6.0 L524.0,-6.0 L524.0,76.0" fill="none" stroke="#37474F" stroke-width="2.0" marker-end="url(#arrow-control)"/><rect x="1030.0" y="-17.5" width="100" height="17" rx="3" fill="#FFFFFF"/><text x="1079.8" y="-5.5" font-family="Trebuchet MS, Verdana, Arial, sans-serif" font-size="11" fill="#37474F" text-anchor="middle">no, edit input</text><path d="M1966.0,160.0 L1966.0,340.0" fill="none" stroke="#37474F" stroke-width="2.0" marker-end="url(#arrow-control)"/><rect x="1941.8" y="238.5" width="48" height="17" rx="3" fill="#FFFFFF"/><text x="1966.0" y="250.5" font-family="Trebuchet MS, Verdana, Arial, sans-serif" font-size="11" fill="#37474F" text-anchor="middle">step 4</text><path d="M1966.0,411.0 L1966.0,581.0" fill="none" stroke="#37474F" stroke-width="2.0" marker-end="url(#arrow-control)"/><rect x="1948.2" y="484.5" width="36" height="17" rx="3" fill="#FFFFFF"/><text x="1966.0" y="496.5" font-family="Trebuchet MS, Verdana, Arial, sans-serif" font-size="11" fill="#37474F" text-anchor="middle">runs</text><path d="M1966.0,652.0 L1966.0,737.0 L2350.0,737.0 L2350.0,822.0" fill="none" stroke="#546E7A" stroke-width="2.0" stroke-dasharray="2 4" marker-end="url(#arrow-data)" marker-start="url(#arrow-data)"/><rect x="2108.2" y="725.5" width="100" height="17" rx="3" fill="#FFFFFF"/><text x="2158.0" y="737.5" font-family="Trebuchet MS, Verdana, Arial, sans-serif" font-size="11" fill="#546E7A" text-anchor="middle">place, lat lng</text><path d="M2366.0,411.0 L2366.0,822.0" fill="none" stroke="#546E7A" stroke-width="2.0" stroke-dasharray="2 4" marker-end="url(#arrow-data)" marker-start="url(#arrow-data)"/><rect x="2319.4" y="605.0" width="93" height="17" rx="3" fill="#FFFFFF"/><text x="2366.0" y="617.0" font-family="Trebuchet MS, Verdana, Arial, sans-serif" font-size="11" fill="#546E7A" text-anchor="middle">fixed address</text><path d="M2232.0,375.5 L2084.0,375.5" fill="none" stroke="#37474F" stroke-width="2.0" marker-end="url(#arrow-control)"/><rect x="2117.8" y="364.0" width="80" height="17" rx="3" fill="#FFFFFF"/><text x="2158.0" y="376.0" font-family="Trebuchet MS, Verdana, Arial, sans-serif" font-size="11" fill="#37474F" text-anchor="middle">replaced by</text><path d="M2098.0,118.0 L2602.0,118.0" fill="none" stroke="#37474F" stroke-width="2.0" marker-end="url(#arrow-control)"/><rect x="2332.2" y="106.5" width="36" height="17" rx="3" fill="#FFFFFF"/><text x="2350.0" y="118.5" font-family="Trebuchet MS, Verdana, Arial, sans-serif" font-size="11" fill="#37474F" text-anchor="middle">then</text><path d="M2734.0,160.0 L2734.0,340.0" fill="none" stroke="#37474F" stroke-width="2.0" marker-end="url(#arrow-control)"/><rect x="2709.8" y="238.5" width="48" height="17" rx="3" fill="#FFFFFF"/><text x="2734.0" y="250.5" font-family="Trebuchet MS, Verdana, Arial, sans-serif" font-size="11" fill="#37474F" text-anchor="middle">step 5</text><path d="M2734.0,411.0 L2734.0,581.0" fill="none" stroke="#37474F" stroke-width="2.0" marker-end="url(#arrow-control)"/><rect x="2716.2" y="484.5" width="36" height="17" rx="3" fill="#FFFFFF"/><text x="2734.0" y="496.5" font-family="Trebuchet MS, Verdana, Arial, sans-serif" font-size="11" fill="#37474F" text-anchor="middle">runs</text><path d="M2866.0,118.0 L3000.0,118.0" fill="none" stroke="#37474F" stroke-width="2.0" marker-end="url(#arrow-control)"/><rect x="2915.2" y="106.5" width="36" height="17" rx="3" fill="#FFFFFF"/><text x="2933.0" y="118.5" font-family="Trebuchet MS, Verdana, Arial, sans-serif" font-size="11" fill="#37474F" text-anchor="middle">then</text><path d="M3132.0,160.0 L3132.0,340.0" fill="none" stroke="#37474F" stroke-width="2.0" marker-end="url(#arrow-control)"/><rect x="3095.0" y="238.5" width="74" height="17" rx="3" fill="#FFFFFF"/><text x="3132.0" y="250.5" font-family="Trebuchet MS, Verdana, Arial, sans-serif" font-size="11" fill="#37474F" text-anchor="middle">steps 6, 7</text><path d="M3132.0,411.0 L3132.0,581.0" fill="none" stroke="#37474F" stroke-width="2.0" marker-end="url(#arrow-control)"/><rect x="3114.2" y="484.5" width="36" height="17" rx="3" fill="#FFFFFF"/><text x="3132.0" y="496.5" font-family="Trebuchet MS, Verdana, Arial, sans-serif" font-size="11" fill="#37474F" text-anchor="middle">runs</text><path d="M3132.0,652.0 L3132.0,822.0" fill="none" stroke="#546E7A" stroke-width="2.0" stroke-dasharray="2 4" marker-end="url(#arrow-data)" marker-start="url(#arrow-data)"/><rect x="3088.6" y="725.5" width="87" height="17" rx="3" fill="#FFFFFF"/><text x="3132.0" y="737.5" font-family="Trebuchet MS, Verdana, Arial, sans-serif" font-size="11" fill="#546E7A" text-anchor="middle">travel times</text><path d="M3250.0,616.5 L3412.0,616.5" fill="none" stroke="#546E7A" stroke-width="2.0" stroke-dasharray="2 4" marker-end="url(#arrow-data)" marker-start="url(#arrow-data)"/><rect x="3300.4" y="605.0" width="61" height="17" rx="3" fill="#FFFFFF"/><text x="3331.0" y="617.0" font-family="Trebuchet MS, Verdana, Arial, sans-serif" font-size="11" fill="#546E7A" text-anchor="middle">forecast</text><path d="M3264.0,118.0 L3398.0,118.0" fill="none" stroke="#37474F" stroke-width="2.0" marker-end="url(#arrow-control)"/><rect x="3313.2" y="106.5" width="36" height="17" rx="3" fill="#FFFFFF"/><text x="3331.0" y="118.5" font-family="Trebuchet MS, Verdana, Arial, sans-serif" font-size="11" fill="#37474F" text-anchor="middle">then</text><path d="M3662.0,118.0 L4166.0,118.0" fill="none" stroke="#37474F" stroke-width="2.0" marker-end="url(#arrow-control)"/><rect x="3896.2" y="106.5" width="36" height="17" rx="3" fill="#FFFFFF"/><text x="3914.0" y="118.5" font-family="Trebuchet MS, Verdana, Arial, sans-serif" font-size="11" fill="#37474F" text-anchor="middle">then</text><path d="M4298.0,160.0 L4298.0,340.0" fill="none" stroke="#37474F" stroke-width="2.0" marker-end="url(#arrow-control)"/><rect x="4273.8" y="238.5" width="48" height="17" rx="3" fill="#FFFFFF"/><text x="4298.0" y="250.5" font-family="Trebuchet MS, Verdana, Arial, sans-serif" font-size="11" fill="#37474F" text-anchor="middle">step 8</text><path d="M4032.0,375.5 L4180.0,375.5" fill="none" stroke="#546E7A" stroke-width="2.0" stroke-dasharray="2 4" marker-end="url(#arrow-data)"/><rect x="4065.8" y="364.0" width="80" height="17" rx="3" fill="#FFFFFF"/><text x="4106.0" y="376.0" font-family="Trebuchet MS, Verdana, Arial, sans-serif" font-size="11" fill="#546E7A" text-anchor="middle">loadMembers</text><path d="M4298.0,411.0 L4298.0,581.0" fill="none" stroke="#546E7A" stroke-width="2.0" stroke-dasharray="2 4" marker-end="url(#arrow-data)" marker-start="url(#arrow-data)"/><rect x="4264.2" y="484.5" width="68" height="17" rx="3" fill="#FFFFFF"/><text x="4298.0" y="496.5" font-family="Trebuchet MS, Verdana, Arial, sans-serif" font-size="11" fill="#546E7A" text-anchor="middle">pins, map</text><path d="M4430.0,118.0 L4564.0,118.0" fill="none" stroke="#37474F" stroke-width="2.0" marker-end="url(#arrow-control)"/><rect x="4460.0" y="106.5" width="74" height="17" rx="3" fill="#FFFFFF"/><text x="4497.0" y="118.5" font-family="Trebuchet MS, Verdana, Arial, sans-serif" font-size="11" fill="#37474F" text-anchor="middle">pick a pin</text><path d="M4696.0,160.0 L4696.0,340.0" fill="none" stroke="#37474F" stroke-width="2.0" marker-end="url(#arrow-control)"/><rect x="4671.8" y="238.5" width="48" height="17" rx="3" fill="#FFFFFF"/><text x="4696.0" y="250.5" font-family="Trebuchet MS, Verdana, Arial, sans-serif" font-size="11" fill="#37474F" text-anchor="middle">step 9</text><path d="M4696.0,411.0 L4696.0,581.0" fill="none" stroke="#37474F" stroke-width="2.0" marker-end="url(#arrow-control)"/><rect x="4678.2" y="484.5" width="36" height="17" rx="3" fill="#FFFFFF"/><text x="4696.0" y="496.5" font-family="Trebuchet MS, Verdana, Arial, sans-serif" font-size="11" fill="#37474F" text-anchor="middle">runs</text><path d="M4696.0,652.0 L4696.0,822.0" fill="none" stroke="#546E7A" stroke-width="2.0" stroke-dasharray="2 4" marker-end="url(#arrow-data)" marker-start="url(#arrow-data)"/><rect x="4652.6" y="725.5" width="87" height="17" rx="3" fill="#FFFFFF"/><text x="4696.0" y="737.5" font-family="Trebuchet MS, Verdana, Arial, sans-serif" font-size="11" fill="#546E7A" text-anchor="middle">scores, text</text><rect x="73.0" y="66.0" width="170" height="104" rx="8" fill="#FFE0B2" stroke="#2E7D32" stroke-width="2.5"/><circle cx="158.0" cy="85.0" r="8" fill="#2E7D32"/><path d="M145.0,107.0 a13,17 0 0,1 26,0 z" fill="#2E7D32"/><text x="158.0" y="127.5" font-family="Trebuchet MS, Verdana, Arial, sans-serif" font-size="13" fill="#1A2327" font-weight="bold" text-anchor="middle">Group member</text><text x="158.0" y="143.4" font-family="Trebuchet MS, Verdana, Arial, sans-serif" font-size="10" fill="#455A64" font-weight="normal" text-anchor="middle">enters details, then picks</text><text x="158.0" y="156.4" font-family="Trebuchet MS, Verdana, Arial, sans-serif" font-size="10" fill="#455A64" font-weight="normal" text-anchor="middle">a place</text><rect x="377.0" y="76.0" width="264" height="84" rx="42.0" fill="#BBDEFB" stroke="#2E7D32" stroke-width="2.5"/><rect x="382.0" y="81.0" width="254" height="74" rx="37.0" fill="none" stroke="#2E7D32" stroke-width="1.4"/><text x="451.0" y="99.5" font-family="Trebuchet MS, Verdana, Arial, sans-serif" font-size="13" fill="#1A2327" font-weight="bold" text-anchor="start">Enter each member's</text><text x="451.0" y="115.5" font-family="Trebuchet MS, Verdana, Arial, sans-serif" font-size="13" fill="#1A2327" font-weight="bold" text-anchor="start">details</text><text x="451.0" y="131.4" font-family="Trebuchet MS, Verdana, Arial, sans-serif" font-size="10" fill="#455A64" font-weight="normal" text-anchor="start">name, location,</text><text x="451.0" y="144.4" font-family="Trebuchet MS, Verdana, Arial, sans-serif" font-size="10" fill="#455A64" font-weight="normal" text-anchor="start">availability, budget</text><rect x="387.0" y="105.0" width="30" height="26" rx="5" fill="#1A2327"/><text x="402.0" y="123.0" font-family="Trebuchet MS, Verdana, Arial, sans-serif" font-size="15" font-weight="bold" fill="#FFFFFF" text-anchor="middle">1</text><rect x="590.8" y="107.0" width="29.2" height="22" rx="11" fill="#00695C"/><text x="605.4" y="122.5" font-family="Trebuchet MS, Verdana, Arial, sans-serif" font-size="11" font-weight="bold" fill="#FFFFFF" text-anchor="middle">F1</text><circle cx="432.0" cy="112.0" r="5" fill="#E65100"/><path d="M424.0,129.0 a8,11 0 0,1 16,0 z" fill="#E65100"/><rect x="391.0" y="340.0" width="236" height="71" rx="4" fill="#F8BBD0" stroke="#2E7D32" stroke-width="2.5"/><text x="509.0" y="371.4" font-family="Trebuchet MS, Verdana, Arial, sans-serif" font-size="13" fill="#1A2327" font-weight="bold" text-anchor="middle">[ui] / member form</text><text x="509.0" y="387.4" font-family="Trebuchet MS, Verdana, Arial, sans-serif" font-size="10" fill="#455A64" font-weight="normal" text-anchor="middle">MemberForm: add or remove members</text><rect x="391.0" y="581.0" width="236" height="71" rx="4" fill="#FFE082" stroke="#2E7D32" stroke-width="2.5"/><text x="509.0" y="605.9" font-family="Trebuchet MS, Verdana, Arial, sans-serif" font-size="13" fill="#1A2327" font-weight="bold" text-anchor="middle">[store] sessionStorage</text><text x="509.0" y="621.9" font-family="Trebuchet MS, Verdana, Arial, sans-serif" font-size="10" fill="#455A64" font-weight="normal" text-anchor="middle">key midway.members, written on submit,</text><text x="509.0" y="634.9" font-family="Trebuchet MS, Verdana, Arial, sans-serif" font-size="10" fill="#455A64" font-weight="normal" text-anchor="middle">tab memory</text><rect x="775.0" y="76.0" width="264" height="84" rx="42.0" fill="#BBDEFB" stroke="#F9A825" stroke-width="2.5" stroke-dasharray="7 5"/><text x="829.0" y="107.5" font-family="Trebuchet MS, Verdana, Arial, sans-serif" font-size="13" fill="#1A2327" font-weight="bold" text-anchor="start">Parse free text into fields</text><text x="829.0" y="123.5" font-family="Trebuchet MS, Verdana, Arial, sans-serif" font-size="10" fill="#455A64" font-weight="normal" text-anchor="start">coordinates, time ranges, price</text><text x="829.0" y="136.4" font-family="Trebuchet MS, Verdana, Arial, sans-serif" font-size="10" fill="#455A64" font-weight="normal" text-anchor="start">limits</text><rect x="785.0" y="105.0" width="30" height="26" rx="5" fill="#1A2327"/><text x="800.0" y="123.0" font-family="Trebuchet MS, Verdana, Arial, sans-serif" font-size="15" font-weight="bold" fill="#FFFFFF" text-anchor="middle">2</text><rect x="789.0" y="340.0" width="236" height="71" rx="4" fill="#D1C4E9" stroke="#F9A825" stroke-width="2.5" stroke-dasharray="7 5"/><text x="907.0" y="371.4" font-family="Trebuchet MS, Verdana, Arial, sans-serif" font-size="13" fill="#1A2327" font-weight="bold" text-anchor="middle">[endpoint] POST /api/parse</text><text x="907.0" y="387.4" font-family="Trebuchet MS, Verdana, Arial, sans-serif" font-size="10" fill="#455A64" font-weight="normal" text-anchor="middle">Next.js route, members in, fields out</text><rect x="789.0" y="581.0" width="236" height="71" rx="4" fill="#CFD8DC" stroke="#F9A825" stroke-width="2.5" stroke-dasharray="7 5"/><text x="907.0" y="612.4" font-family="Trebuchet MS, Verdana, Arial, sans-serif" font-size="13" fill="#1A2327" font-weight="bold" text-anchor="middle">[code] parseMemberInput</text><text x="907.0" y="628.4" font-family="Trebuchet MS, Verdana, Arial, sans-serif" font-size="10" fill="#455A64" font-weight="normal" text-anchor="middle">builds the prompt, validates the reply</text><rect x="789.0" y="822.0" width="236" height="71" rx="4" fill="#D1C4E9" stroke="#F9A825" stroke-width="2.5" stroke-dasharray="7 5"/><text x="907.0" y="845.4" font-family="Trebuchet MS, Verdana, Arial, sans-serif" font-size="13" fill="#1A2327" font-weight="bold" text-anchor="middle">[endpoint] Gemini</text><text x="907.0" y="861.4" font-family="Trebuchet MS, Verdana, Arial, sans-serif" font-size="13" fill="#1A2327" font-weight="bold" text-anchor="middle">generateContent</text><text x="907.0" y="877.4" font-family="Trebuchet MS, Verdana, Arial, sans-serif" font-size="10" fill="#455A64" font-weight="normal" text-anchor="middle">Google's LLM API</text><rect x="1173.0" y="76.0" width="264" height="84" rx="42.0" fill="#BBDEFB" stroke="#F9A825" stroke-width="2.5" stroke-dasharray="7 5"/><rect x="1178.0" y="81.0" width="254" height="74" rx="37.0" fill="none" stroke="#F9A825" stroke-width="1.4"/><text x="1247.0" y="99.5" font-family="Trebuchet MS, Verdana, Arial, sans-serif" font-size="13" fill="#1A2327" font-weight="bold" text-anchor="start">Confirm how input was</text><text x="1247.0" y="115.5" font-family="Trebuchet MS, Verdana, Arial, sans-serif" font-size="13" fill="#1A2327" font-weight="bold" text-anchor="start">read</text><text x="1247.0" y="131.4" font-family="Trebuchet MS, Verdana, Arial, sans-serif" font-size="10" fill="#455A64" font-weight="normal" text-anchor="start">each member checks their own</text><text x="1247.0" y="144.4" font-family="Trebuchet MS, Verdana, Arial, sans-serif" font-size="10" fill="#455A64" font-weight="normal" text-anchor="start">fields</text><rect x="1183.0" y="105.0" width="30" height="26" rx="5" fill="#1A2327"/><text x="1198.0" y="123.0" font-family="Trebuchet MS, Verdana, Arial, sans-serif" font-size="15" font-weight="bold" fill="#FFFFFF" text-anchor="middle">3</text><circle cx="1228.0" cy="112.0" r="5" fill="#E65100"/><path d="M1220.0,129.0 a8,11 0 0,1 16,0 z" fill="#E65100"/><polygon points="1635.5,85.5 1700.0,118.0 1635.5,150.5 1571.0,118.0" fill="#FFF9C4" stroke="#F9A825" stroke-width="2.5" stroke-dasharray="7 5"/><text x="1635.5" y="121.6" font-family="Trebuchet MS, Verdana, Arial, sans-serif" font-size="13" fill="#1A2327" font-weight="bold" text-anchor="middle">Correct?</text><rect x="1834.0" y="76.0" width="264" height="84" rx="42.0" fill="#BBDEFB" stroke="#F9A825" stroke-width="2.5" stroke-dasharray="7 5"/><text x="1888.0" y="107.5" font-family="Trebuchet MS, Verdana, Arial, sans-serif" font-size="13" fill="#1A2327" font-weight="bold" text-anchor="start">Geocode member locations</text><text x="1888.0" y="123.5" font-family="Trebuchet MS, Verdana, Arial, sans-serif" font-size="10" fill="#455A64" font-weight="normal" text-anchor="start">place text to latitude and</text><text x="1888.0" y="136.4" font-family="Trebuchet MS, Verdana, Arial, sans-serif" font-size="10" fill="#455A64" font-weight="normal" text-anchor="start">longitude</text><rect x="1844.0" y="105.0" width="30" height="26" rx="5" fill="#1A2327"/><text x="1859.0" y="123.0" font-family="Trebuchet MS, Verdana, Arial, sans-serif" font-size="15" font-weight="bold" fill="#FFFFFF" text-anchor="middle">4</text><rect x="1848.0" y="340.0" width="236" height="71" rx="4" fill="#D1C4E9" stroke="#F9A825" stroke-width="2.5" stroke-dasharray="7 5"/><text x="1966.0" y="371.4" font-family="Trebuchet MS, Verdana, Arial, sans-serif" font-size="13" fill="#1A2327" font-weight="bold" text-anchor="middle">[endpoint] POST /api/geocode</text><text x="1966.0" y="387.4" font-family="Trebuchet MS, Verdana, Arial, sans-serif" font-size="10" fill="#455A64" font-weight="normal" text-anchor="middle">Next.js route, one call per member</text><rect x="1848.0" y="581.0" width="236" height="71" rx="4" fill="#CFD8DC" stroke="#F9A825" stroke-width="2.5" stroke-dasharray="7 5"/><text x="1966.0" y="605.9" font-family="Trebuchet MS, Verdana, Arial, sans-serif" font-size="13" fill="#1A2327" font-weight="bold" text-anchor="middle">[code] geocodeLocation</text><text x="1966.0" y="621.9" font-family="Trebuchet MS, Verdana, Arial, sans-serif" font-size="10" fill="#455A64" font-weight="normal" text-anchor="middle">at most 1 request a second, named</text><text x="1966.0" y="634.9" font-family="Trebuchet MS, Verdana, Arial, sans-serif" font-size="10" fill="#455A64" font-weight="normal" text-anchor="middle">User-Agent</text><rect x="2232.0" y="340.0" width="236" height="71" rx="4" fill="#D1C4E9" stroke="#2E7D32" stroke-width="2.5"/><text x="2350.0" y="371.4" font-family="Trebuchet MS, Verdana, Arial, sans-serif" font-size="13" fill="#1A2327" font-weight="bold" text-anchor="middle">[endpoint] GET /api/test-geocode</text><text x="2350.0" y="387.4" font-family="Trebuchet MS, Verdana, Arial, sans-serif" font-size="10" fill="#455A64" font-weight="normal" text-anchor="middle">smoke test, one fixed address</text><rect x="2232.0" y="822.0" width="236" height="71" rx="4" fill="#D1C4E9" stroke="#F9A825" stroke-width="2.5" stroke-dasharray="7 5"/><text x="2350.0" y="853.4" font-family="Trebuchet MS, Verdana, Arial, sans-serif" font-size="13" fill="#1A2327" font-weight="bold" text-anchor="middle">[endpoint] Nominatim /search</text><text x="2350.0" y="869.4" font-family="Trebuchet MS, Verdana, Arial, sans-serif" font-size="10" fill="#455A64" font-weight="normal" text-anchor="middle">free geocoder, no API key</text><rect x="2602.0" y="76.0" width="264" height="84" rx="42.0" fill="#BBDEFB" stroke="#F9A825" stroke-width="2.5" stroke-dasharray="7 5"/><text x="2656.0" y="99.5" font-family="Trebuchet MS, Verdana, Arial, sans-serif" font-size="13" fill="#1A2327" font-weight="bold" text-anchor="start">Generate candidate</text><text x="2656.0" y="115.5" font-family="Trebuchet MS, Verdana, Arial, sans-serif" font-size="13" fill="#1A2327" font-weight="bold" text-anchor="start">meeting points</text><text x="2656.0" y="131.4" font-family="Trebuchet MS, Verdana, Arial, sans-serif" font-size="10" fill="#455A64" font-weight="normal" text-anchor="start">real destinations, not a</text><text x="2656.0" y="144.4" font-family="Trebuchet MS, Verdana, Arial, sans-serif" font-size="10" fill="#455A64" font-weight="normal" text-anchor="start">raw centre</text><rect x="2612.0" y="105.0" width="30" height="26" rx="5" fill="#1A2327"/><text x="2627.0" y="123.0" font-family="Trebuchet MS, Verdana, Arial, sans-serif" font-size="15" font-weight="bold" fill="#FFFFFF" text-anchor="middle">5</text><rect x="2815.8" y="107.0" width="29.2" height="22" rx="11" fill="#00695C"/><text x="2830.4" y="122.5" font-family="Trebuchet MS, Verdana, Arial, sans-serif" font-size="11" font-weight="bold" fill="#FFFFFF" text-anchor="middle">F2</text><rect x="2616.0" y="340.0" width="236" height="71" rx="4" fill="#D1C4E9" stroke="#F9A825" stroke-width="2.5" stroke-dasharray="7 5"/><text x="2734.0" y="371.4" font-family="Trebuchet MS, Verdana, Arial, sans-serif" font-size="13" fill="#1A2327" font-weight="bold" text-anchor="middle">[endpoint] POST /candidates</text><text x="2734.0" y="387.4" font-family="Trebuchet MS, Verdana, Arial, sans-serif" font-size="10" fill="#455A64" font-weight="normal" text-anchor="middle">FastAPI route, coordinates in</text><rect x="2616.0" y="581.0" width="236" height="71" rx="4" fill="#CFD8DC" stroke="#F9A825" stroke-width="2.5" stroke-dasharray="7 5"/><text x="2734.0" y="612.4" font-family="Trebuchet MS, Verdana, Arial, sans-serif" font-size="13" fill="#1A2327" font-weight="bold" text-anchor="middle">[code] generate_candidates</text><text x="2734.0" y="628.4" font-family="Trebuchet MS, Verdana, Arial, sans-serif" font-size="10" fill="#455A64" font-weight="normal" text-anchor="middle">skips lakes, rivers and mountains</text><rect x="3000.0" y="76.0" width="264" height="84" rx="42.0" fill="#BBDEFB" stroke="#F9A825" stroke-width="2.5" stroke-dasharray="7 5"/><text x="3054.0" y="99.5" font-family="Trebuchet MS, Verdana, Arial, sans-serif" font-size="13" fill="#1A2327" font-weight="bold" text-anchor="start">Score each place per</text><text x="3054.0" y="115.5" font-family="Trebuchet MS, Verdana, Arial, sans-serif" font-size="13" fill="#1A2327" font-weight="bold" text-anchor="start">member</text><text x="3054.0" y="131.4" font-family="Trebuchet MS, Verdana, Arial, sans-serif" font-size="10" fill="#455A64" font-weight="normal" text-anchor="start">travel time, cost, weather,</text><text x="3054.0" y="144.4" font-family="Trebuchet MS, Verdana, Arial, sans-serif" font-size="10" fill="#455A64" font-weight="normal" text-anchor="start">custom</text><rect x="3010.0" y="105.0" width="30" height="26" rx="5" fill="#1A2327"/><text x="3025.0" y="123.0" font-family="Trebuchet MS, Verdana, Arial, sans-serif" font-size="15" font-weight="bold" fill="#FFFFFF" text-anchor="middle">6</text><rect x="3213.8" y="107.0" width="29.2" height="22" rx="11" fill="#00695C"/><text x="3228.4" y="122.5" font-family="Trebuchet MS, Verdana, Arial, sans-serif" font-size="11" font-weight="bold" fill="#FFFFFF" text-anchor="middle">F3</text><rect x="3014.0" y="340.0" width="236" height="71" rx="4" fill="#D1C4E9" stroke="#F9A825" stroke-width="2.5" stroke-dasharray="7 5"/><text x="3132.0" y="371.4" font-family="Trebuchet MS, Verdana, Arial, sans-serif" font-size="13" fill="#1A2327" font-weight="bold" text-anchor="middle">[endpoint] POST /scores</text><text x="3132.0" y="387.4" font-family="Trebuchet MS, Verdana, Arial, sans-serif" font-size="10" fill="#455A64" font-weight="normal" text-anchor="middle">FastAPI route, candidates in</text><rect x="3014.0" y="581.0" width="236" height="71" rx="4" fill="#CFD8DC" stroke="#F9A825" stroke-width="2.5" stroke-dasharray="7 5"/><text x="3132.0" y="605.9" font-family="Trebuchet MS, Verdana, Arial, sans-serif" font-size="13" fill="#1A2327" font-weight="bold" text-anchor="middle">[code] score_candidates</text><text x="3132.0" y="621.9" font-family="Trebuchet MS, Verdana, Arial, sans-serif" font-size="10" fill="#455A64" font-weight="normal" text-anchor="middle">per-member scores, then the group</text><text x="3132.0" y="634.9" font-family="Trebuchet MS, Verdana, Arial, sans-serif" font-size="10" fill="#455A64" font-weight="normal" text-anchor="middle">average</text><rect x="3014.0" y="822.0" width="236" height="71" rx="4" fill="#D1C4E9" stroke="#F9A825" stroke-width="2.5" stroke-dasharray="7 5"/><text x="3132.0" y="853.4" font-family="Trebuchet MS, Verdana, Arial, sans-serif" font-size="13" fill="#1A2327" font-weight="bold" text-anchor="middle">[endpoint] Distance Matrix API</text><text x="3132.0" y="869.4" font-family="Trebuchet MS, Verdana, Arial, sans-serif" font-size="10" fill="#455A64" font-weight="normal" text-anchor="middle">travel time for each member</text><rect x="3398.0" y="76.0" width="264" height="84" rx="42.0" fill="#BBDEFB" stroke="#F9A825" stroke-width="2.5" stroke-dasharray="7 5"/><text x="3452.0" y="114.0" font-family="Trebuchet MS, Verdana, Arial, sans-serif" font-size="13" fill="#1A2327" font-weight="bold" text-anchor="start">Rank places by group score</text><text x="3452.0" y="129.9" font-family="Trebuchet MS, Verdana, Arial, sans-serif" font-size="10" fill="#455A64" font-weight="normal" text-anchor="start">the average of each member's score</text><rect x="3408.0" y="105.0" width="30" height="26" rx="5" fill="#1A2327"/><text x="3423.0" y="123.0" font-family="Trebuchet MS, Verdana, Arial, sans-serif" font-size="15" font-weight="bold" fill="#FFFFFF" text-anchor="middle">7</text><rect x="3412.0" y="581.0" width="236" height="71" rx="4" fill="#D1C4E9" stroke="#F9A825" stroke-width="2.5" stroke-dasharray="7 5"/><text x="3530.0" y="604.4" font-family="Trebuchet MS, Verdana, Arial, sans-serif" font-size="13" fill="#1A2327" font-weight="bold" text-anchor="middle">[endpoint] Open-Meteo</text><text x="3530.0" y="620.4" font-family="Trebuchet MS, Verdana, Arial, sans-serif" font-size="13" fill="#1A2327" font-weight="bold" text-anchor="middle">/v1/forecast</text><text x="3530.0" y="636.4" font-family="Trebuchet MS, Verdana, Arial, sans-serif" font-size="10" fill="#455A64" font-weight="normal" text-anchor="middle">weather, free tier, no key</text><rect x="3796.0" y="340.0" width="236" height="71" rx="4" fill="#FFE082" stroke="#2E7D32" stroke-width="2.5"/><text x="3914.0" y="371.4" font-family="Trebuchet MS, Verdana, Arial, sans-serif" font-size="13" fill="#1A2327" font-weight="bold" text-anchor="middle">[store] sessionStorage</text><text x="3914.0" y="387.4" font-family="Trebuchet MS, Verdana, Arial, sans-serif" font-size="10" fill="#455A64" font-weight="normal" text-anchor="middle">the same key, read on load</text><rect x="4166.0" y="76.0" width="264" height="84" rx="42.0" fill="#BBDEFB" stroke="#F9A825" stroke-width="2.5" stroke-dasharray="7 5"/><rect x="4171.0" y="81.0" width="254" height="74" rx="37.0" fill="none" stroke="#F9A825" stroke-width="1.4"/><text x="4240.0" y="99.5" font-family="Trebuchet MS, Verdana, Arial, sans-serif" font-size="13" fill="#1A2327" font-weight="bold" text-anchor="start">Show top places as</text><text x="4240.0" y="115.5" font-family="Trebuchet MS, Verdana, Arial, sans-serif" font-size="13" fill="#1A2327" font-weight="bold" text-anchor="start">map pins</text><text x="4240.0" y="131.4" font-family="Trebuchet MS, Verdana, Arial, sans-serif" font-size="10" fill="#455A64" font-weight="normal" text-anchor="start">click a pin to see its</text><text x="4240.0" y="144.4" font-family="Trebuchet MS, Verdana, Arial, sans-serif" font-size="10" fill="#455A64" font-weight="normal" text-anchor="start">score</text><rect x="4176.0" y="105.0" width="30" height="26" rx="5" fill="#1A2327"/><text x="4191.0" y="123.0" font-family="Trebuchet MS, Verdana, Arial, sans-serif" font-size="15" font-weight="bold" fill="#FFFFFF" text-anchor="middle">8</text><rect x="4379.8" y="107.0" width="29.2" height="22" rx="11" fill="#00695C"/><text x="4394.4" y="122.5" font-family="Trebuchet MS, Verdana, Arial, sans-serif" font-size="11" font-weight="bold" fill="#FFFFFF" text-anchor="middle">F4</text><circle cx="4221.0" cy="112.0" r="5" fill="#E65100"/><path d="M4213.0,129.0 a8,11 0 0,1 16,0 z" fill="#E65100"/><rect x="4180.0" y="340.0" width="236" height="71" rx="4" fill="#F8BBD0" stroke="#F9A825" stroke-width="2.5" stroke-dasharray="7 5"/><text x="4298.0" y="371.4" font-family="Trebuchet MS, Verdana, Arial, sans-serif" font-size="13" fill="#1A2327" font-weight="bold" text-anchor="middle">[ui] /results page</text><text x="4298.0" y="387.4" font-family="Trebuchet MS, Verdana, Arial, sans-serif" font-size="10" fill="#455A64" font-weight="normal" text-anchor="middle">map, ranked list, raw data view</text><rect x="4180.0" y="581.0" width="236" height="71" rx="4" fill="#D1C4E9" stroke="#F9A825" stroke-width="2.5" stroke-dasharray="7 5"/><text x="4298.0" y="612.4" font-family="Trebuchet MS, Verdana, Arial, sans-serif" font-size="13" fill="#1A2327" font-weight="bold" text-anchor="middle">[endpoint] Maps JavaScript API</text><text x="4298.0" y="628.4" font-family="Trebuchet MS, Verdana, Arial, sans-serif" font-size="10" fill="#455A64" font-weight="normal" text-anchor="middle">draws the interactive map</text><rect x="4564.0" y="76.0" width="264" height="84" rx="42.0" fill="#BBDEFB" stroke="#F9A825" stroke-width="2.5" stroke-dasharray="7 5"/><text x="4618.0" y="99.5" font-family="Trebuchet MS, Verdana, Arial, sans-serif" font-size="13" fill="#1A2327" font-weight="bold" text-anchor="start">Explain trade-offs,</text><text x="4618.0" y="115.5" font-family="Trebuchet MS, Verdana, Arial, sans-serif" font-size="13" fill="#1A2327" font-weight="bold" text-anchor="start">suggest venues</text><text x="4618.0" y="131.4" font-family="Trebuchet MS, Verdana, Arial, sans-serif" font-size="10" fill="#455A64" font-weight="normal" text-anchor="start">plain words for each top</text><text x="4618.0" y="144.4" font-family="Trebuchet MS, Verdana, Arial, sans-serif" font-size="10" fill="#455A64" font-weight="normal" text-anchor="start">place</text><rect x="4574.0" y="105.0" width="30" height="26" rx="5" fill="#1A2327"/><text x="4589.0" y="123.0" font-family="Trebuchet MS, Verdana, Arial, sans-serif" font-size="15" font-weight="bold" fill="#FFFFFF" text-anchor="middle">9</text><rect x="4777.8" y="107.0" width="29.2" height="22" rx="11" fill="#00695C"/><text x="4792.4" y="122.5" font-family="Trebuchet MS, Verdana, Arial, sans-serif" font-size="11" font-weight="bold" fill="#FFFFFF" text-anchor="middle">F5</text><rect x="4578.0" y="340.0" width="236" height="71" rx="4" fill="#D1C4E9" stroke="#F9A825" stroke-width="2.5" stroke-dasharray="7 5"/><text x="4696.0" y="371.4" font-family="Trebuchet MS, Verdana, Arial, sans-serif" font-size="13" fill="#1A2327" font-weight="bold" text-anchor="middle">[endpoint] POST /api/explain</text><text x="4696.0" y="387.4" font-family="Trebuchet MS, Verdana, Arial, sans-serif" font-size="10" fill="#455A64" font-weight="normal" text-anchor="middle">Next.js route, scores in, text out</text><rect x="4578.0" y="581.0" width="236" height="71" rx="4" fill="#CFD8DC" stroke="#F9A825" stroke-width="2.5" stroke-dasharray="7 5"/><text x="4696.0" y="612.4" font-family="Trebuchet MS, Verdana, Arial, sans-serif" font-size="13" fill="#1A2327" font-weight="bold" text-anchor="middle">[code] explainTradeoffs</text><text x="4696.0" y="628.4" font-family="Trebuchet MS, Verdana, Arial, sans-serif" font-size="10" fill="#455A64" font-weight="normal" text-anchor="middle">writes the explanation and venue ideas</text><rect x="4578.0" y="822.0" width="236" height="71" rx="4" fill="#D1C4E9" stroke="#F9A825" stroke-width="2.5" stroke-dasharray="7 5"/><text x="4696.0" y="845.4" font-family="Trebuchet MS, Verdana, Arial, sans-serif" font-size="13" fill="#1A2327" font-weight="bold" text-anchor="middle">[endpoint] Gemini</text><text x="4696.0" y="861.4" font-family="Trebuchet MS, Verdana, Arial, sans-serif" font-size="13" fill="#1A2327" font-weight="bold" text-anchor="middle">generateContent</text><text x="4696.0" y="877.4" font-family="Trebuchet MS, Verdana, Arial, sans-serif" font-size="10" fill="#455A64" font-weight="normal" text-anchor="middle">the same LLM API as step 2</text><rect x="3775.0" y="46.6" width="284.7" height="19.6" rx="3" fill="#F5F7FA"/><text x="3780.0" y="60.0" font-family="Trebuchet MS, Verdana, Arial, sans-serif" font-size="13" font-weight="bold" fill="#37474F">5. Map, results, explanation (steps 8, 9)</text><rect x="2993.0" y="46.6" width="164.1" height="19.6" rx="3" fill="#F5F7FA"/><text x="2998.0" y="60.0" font-family="Trebuchet MS, Verdana, Arial, sans-serif" font-size="13" font-weight="bold" fill="#37474F">4. Scoring (steps 6, 7)</text><rect x="2595.0" y="46.6" width="217.7" height="19.6" rx="3" fill="#F5F7FA"/><text x="2600.0" y="60.0" font-family="Trebuchet MS, Verdana, Arial, sans-serif" font-size="13" font-weight="bold" fill="#37474F">3. Midpoint generation (step 5)</text><rect x="768.0" y="46.6" width="244.5" height="19.6" rx="3" fill="#F5F7FA"/><text x="773.0" y="60.0" font-family="Trebuchet MS, Verdana, Arial, sans-serif" font-size="13" font-weight="bold" fill="#37474F">2. Parse and geocode (steps 2 to 4)</text><rect x="370.0" y="46.6" width="211.0" height="19.6" rx="3" fill="#F5F7FA"/><text x="375.0" y="60.0" font-family="Trebuchet MS, Verdana, Arial, sans-serif" font-size="13" font-weight="bold" fill="#37474F">1. Multi-person input (step 1)</text><rect x="4571.0" y="792.6" width="97.1" height="19.6" rx="3" fill="#FFF3E0"/><text x="4576.0" y="806.0" font-family="Trebuchet MS, Verdana, Arial, sans-serif" font-size="13" font-weight="bold" fill="#E65100">Google Gemini</text><rect x="4571.0" y="310.6" width="103.8" height="19.6" rx="3" fill="#EDE7F6"/><text x="4576.0" y="324.0" font-family="Trebuchet MS, Verdana, Arial, sans-serif" font-size="13" font-weight="bold" fill="#4527A0">Next.js server</text><rect x="4173.0" y="551.6" width="144.0" height="19.6" rx="3" fill="#FFF3E0"/><text x="4178.0" y="565.0" font-family="Trebuchet MS, Verdana, Arial, sans-serif" font-size="13" font-weight="bold" fill="#E65100">Google Maps Platform</text><rect x="3789.0" y="310.6" width="83.7" height="19.6" rx="3" fill="#FCE4EC"/><text x="3794.0" y="324.0" font-family="Trebuchet MS, Verdana, Arial, sans-serif" font-size="13" font-weight="bold" fill="#AD1457">Browser tab</text><rect x="3405.0" y="551.6" width="77.0" height="19.6" rx="3" fill="#FFF3E0"/><text x="3410.0" y="565.0" font-family="Trebuchet MS, Verdana, Arial, sans-serif" font-size="13" font-weight="bold" fill="#E65100">Open-Meteo</text><rect x="3007.0" y="792.6" width="144.0" height="19.6" rx="3" fill="#FFF3E0"/><text x="3012.0" y="806.0" font-family="Trebuchet MS, Verdana, Arial, sans-serif" font-size="13" font-weight="bold" fill="#E65100">Google Maps Platform</text><rect x="3007.0" y="310.6" width="110.5" height="19.6" rx="3" fill="#E0F2F1"/><text x="3012.0" y="324.0" font-family="Trebuchet MS, Verdana, Arial, sans-serif" font-size="13" font-weight="bold" fill="#00695C">FastAPI backend</text><rect x="2609.0" y="310.6" width="110.5" height="19.6" rx="3" fill="#E0F2F1"/><text x="2614.0" y="324.0" font-family="Trebuchet MS, Verdana, Arial, sans-serif" font-size="13" font-weight="bold" fill="#00695C">FastAPI backend</text><rect x="2225.0" y="792.6" width="97.1" height="19.6" rx="3" fill="#FFF3E0"/><text x="2230.0" y="806.0" font-family="Trebuchet MS, Verdana, Arial, sans-serif" font-size="13" font-weight="bold" fill="#E65100">OpenStreetMap</text><rect x="1841.0" y="310.6" width="103.8" height="19.6" rx="3" fill="#EDE7F6"/><text x="1846.0" y="324.0" font-family="Trebuchet MS, Verdana, Arial, sans-serif" font-size="13" font-weight="bold" fill="#4527A0">Next.js server</text><rect x="782.0" y="792.6" width="97.1" height="19.6" rx="3" fill="#FFF3E0"/><text x="787.0" y="806.0" font-family="Trebuchet MS, Verdana, Arial, sans-serif" font-size="13" font-weight="bold" fill="#E65100">Google Gemini</text><rect x="782.0" y="310.6" width="103.8" height="19.6" rx="3" fill="#EDE7F6"/><text x="787.0" y="324.0" font-family="Trebuchet MS, Verdana, Arial, sans-serif" font-size="13" font-weight="bold" fill="#4527A0">Next.js server</text><rect x="384.0" y="310.6" width="83.7" height="19.6" rx="3" fill="#FCE4EC"/><text x="389.0" y="324.0" font-family="Trebuchet MS, Verdana, Arial, sans-serif" font-size="13" font-weight="bold" fill="#AD1457">Browser tab</text><rect x="73" y="941" width="1919" height="56" rx="4" fill="#FFFFFF" stroke="#B0BEC5" stroke-width="1"/><rect x="85.0" y="956.0" width="46" height="26" rx="13" fill="#BBDEFB" stroke="#2E7D32" stroke-width="2"/><rect x="89.0" y="961.0" width="15" height="16" rx="3" fill="#1A2327"/><circle cx="114.0" cy="965.0" r="4" fill="#E65100"/><path d="M108.0,979.0 a6,8 0 0,1 12,0 z" fill="#E65100"/><text x="143" y="973.0" font-family="Trebuchet MS, Verdana, Arial, sans-serif" font-size="11" fill="#37474F">[n] STEP, person = group decides</text><polygon points="393.2,956.0 416.2,969.0 393.2,982.0 370.2,969.0" fill="#FFF9C4" stroke="#2E7D32" stroke-width="2"/><text x="428" y="973.0" font-family="Trebuchet MS, Verdana, Arial, sans-serif" font-size="11" fill="#37474F">DECISION</text><rect x="515.0" y="958.0" width="34" height="22" rx="11" fill="#00695C"/><text x="532.0" y="973.0" font-family="Trebuchet MS, Verdana, Arial, sans-serif" font-size="11" font-weight="bold" fill="#FFFFFF" text-anchor="middle">F1</text><text x="567" y="973.0" font-family="Trebuchet MS, Verdana, Arial, sans-serif" font-size="11" fill="#37474F">Fn = roadmap feature n</text><rect x="733.2" y="956.0" width="46" height="26" rx="3" fill="#F8BBD0" stroke="#78909C" stroke-width="1.5"/><text x="791" y="973.0" font-family="Trebuchet MS, Verdana, Arial, sans-serif" font-size="11" fill="#37474F">[ui] page</text><rect x="878.1" y="956.0" width="46" height="26" rx="3" fill="#D1C4E9" stroke="#78909C" stroke-width="1.5"/><text x="936" y="973.0" font-family="Trebuchet MS, Verdana, Arial, sans-serif" font-size="11" fill="#37474F">[endpoint] HTTP route</text><rect x="1096.2" y="956.0" width="46" height="26" rx="3" fill="#CFD8DC" stroke="#78909C" stroke-width="1.5"/><text x="1154" y="973.0" font-family="Trebuchet MS, Verdana, Arial, sans-serif" font-size="11" fill="#37474F">[code] plain code</text><rect x="1289.9" y="956.0" width="46" height="26" rx="3" fill="#FFE082" stroke="#78909C" stroke-width="1.5"/><text x="1348" y="973.0" font-family="Trebuchet MS, Verdana, Arial, sans-serif" font-size="11" fill="#37474F">[store] saved data</text><rect x="1489.7" y="960.0" width="16" height="18" fill="#FFFFFF" stroke="#2E7D32" stroke-width="2"/><rect x="1509.7" y="960.0" width="16" height="18" fill="#FFFFFF" stroke="#F9A825" stroke-width="2" stroke-dasharray="5 4"/><text x="1548" y="973.0" font-family="Trebuchet MS, Verdana, Arial, sans-serif" font-size="11" fill="#37474F">built / designed</text><path d="M1677.3,969.0 L1715.3,969.0" stroke="#37474F" stroke-width="2" marker-end="url(#arrow-control)"/><text x="1735" y="973.0" font-family="Trebuchet MS, Verdana, Arial, sans-serif" font-size="11" fill="#37474F">solid control</text><path d="M1846.6,969.0 L1884.6,969.0" stroke="#546E7A" stroke-width="2" stroke-dasharray="2 4" marker-end="url(#arrow-data)"/><text x="1905" y="973.0" font-family="Trebuchet MS, Verdana, Arial, sans-serif" font-size="11" fill="#37474F">dotted data</text><text x="77" y="1015" font-family="Trebuchet MS, Verdana, Arial, sans-serif" font-size="11" fill="#607D8B"><tspan x="77" dy="0">Scope: Midway's web app, from the group entering their details to a ranked, explained list of meeting places. Hosting, deployment and accounts are left out.</tspan><tspan x="77" dy="15">This is the design, not today's code: green solid is built, amber dashed is designed. The form, sessionStorage, a placeholder /results page and a smoke-test geocode route exist today. Hosts are drawn beside every stage they serve, so Next.js, FastAPI, the browser tab and the Google APIs each appear more than once. Which host runs the parser and the explainer, and the route and function names, are proposed here; the docs do not fix them yet. F1 to F5 are the five core features in docs/ROADMAP.md, once each.</tspan></text></svg>